# xmcd CD database file
#
# Track frame offsets:
#	150
#	21184
#	39984
#	58226
#	79245
#	98044
#
# Disc length: 1548 seconds
#
# Revision: 3
# Processed by: cddbd v1.5.2PL0 Copyright (c) Steve Scherf et al.
# Submitted via: CDex 1.70beta3
#
DISCID=44060a06
DTITLE=AKB48 - 上からマリコ [劇場盤]
DYEAR=2011
DGENRE=JPop
TTITLE0=上からマリコ
TTITLE1=ノエルの夜
TTITLE2=走れ！ペンギン (Team 4)
TTITLE3=上からマリコ off vocal ver.
TTITLE4=ノエルの夜 off vocal ver.
TTITLE5=走れ！ペンギン (Team 4) off vocal ver.
EXTD=YEAR: 2011
EXTT0=
EXTT1=
EXTT2=
EXTT3=
EXTT4=
EXTT5=
PLAYORDER=
